<svg width="64" height="54" xmlns="http://www.w3.org/2000/svg">

 <g>
  <title>background</title>
  <rect fill="none" id="canvas_background" height="56" width="66" y="-1" x="-1"/>
 </g>
 <g>
  <title>Layer 1</title>
  <g id="svg_1">
   <path stroke="#fff" id="svg_2" fill="#ffffff" d="m16.167,44.664"/>
   <path stroke="#fff" id="svg_3" fill="#ffffff" d="m60.174,22.265c-0.016,-0.009 -0.017,-0.019 -0.034,-0.028c-0.765,-0.433 -1.053,-0.966 -1.053,-0.966l-11.724,-19.633c-0.023,-0.044 -0.464,-0.844 -0.82,-1.393c-0.133,-0.187 -0.423,-0.504 -0.885,-0.504l-13.124,0c-0.292,0 -1.433,0 -2.951,0c-4.289,0 -11.628,0 -11.628,0s-0.689,0.031 -1.437,1.324c-0.67,1.149 -10.036,17.374 -12.124,21.009c-1.517,0.271 -2.683,1.754 -2.683,3.556l0,16.609c0,2.01 1.421,3.605 3.175,3.605l3.175,0l0,7.961c0,0.99 0.639,1.788 1.436,1.788l5.123,0c0.779,0 1.433,-0.798 1.433,-1.788l0,-7.961l31.971,0l0,8.026c0,0.987 0.639,1.785 1.421,1.785l5.058,0c0.781,0 1.417,-0.798 1.417,-1.785l0,-8.026l3.19,0c1.758,0 3.176,-1.596 3.176,-3.605l0,-16.609c0.001,-1.565 -0.883,-2.87 -2.112,-3.365zm-41.518,-18.536c0,0 0.383,-0.751 2.169,-0.751l8.93,0l2.031,0c0,0 0.1,0.003 0.237,0l11.393,0c0.474,0.059 1.19,0.299 1.715,1.178l10.674,17.872l-47.742,0l10.593,-18.299zm-5.007,35.694c-3.028,0 -5.484,-2.455 -5.484,-5.483s2.456,-5.487 5.484,-5.487s5.484,2.459 5.484,5.487s-2.455,5.483 -5.484,5.483zm36.786,0c-3.029,0 -5.484,-2.455 -5.484,-5.483s2.455,-5.487 5.484,-5.487c3.028,0 5.483,2.459 5.483,5.487s-2.455,5.483 -5.483,5.483z"/>
  </g>
 </g>
</svg>