<?xml version="1.0" encoding="utf-8"?>
<!-- Generator: Adobe Illustrator 16.0.0, SVG Export Plug-In . SVG Version: 6.00 Build 0)  -->
<!DOCTYPE svg PUBLIC "-//W3C//DTD SVG 1.1//EN" "http://www.w3.org/Graphics/SVG/1.1/DTD/svg11.dtd">
<svg version="1.1" id="Layer_1" xmlns="http://www.w3.org/2000/svg" xmlns:xlink="http://www.w3.org/1999/xlink" x="0px" y="0px"
	 width="299.965px" height="139.563px" viewBox="0 0 299.965 139.563" enable-background="new 0 0 299.965 139.563"
	 xml:space="preserve">
<g>
	<path fill="#74C6DF" d="M43.335,127.987c-8.143,0-16.362-1.949-23.982-5.945l1.975-3.73c18.385,9.662,40.635,6.28,55.353-8.419
		l2.977,2.975C69.725,122.797,56.633,127.987,43.335,127.987"/>
	<path fill="#73E1A7" d="M43.283,119.736c-11.077,0-22.16-4.216-30.594-12.646C2.936,97.36-1.512,83.952,0.458,70.31l4.172,0.601
		c-1.771,12.32,2.25,24.419,11.039,33.198c15.228,15.209,40.004,15.217,55.233,0l2.978,2.98
		C65.443,115.521,54.36,119.736,43.283,119.736"/>
	<path fill="#DADA76" d="M43.283,111.571c-8.99,0-17.976-3.419-24.816-10.255c-13.69-13.661-13.69-35.916,0-49.593
		c5.256-5.257,11.929-8.656,19.247-9.827l0.671,4.16c-6.45,1.032-12.303,4.02-16.939,8.647c-12.037,12.034-12.037,31.608,0,43.643
		c12.041,12.021,31.63,12.021,43.676,0l2.98,2.971C61.265,108.152,52.271,111.571,43.283,111.571"/>
	<path fill="#FA953A" d="M43.283,103.676c-7.258,0-14.089-2.821-19.217-7.954c-5.14-5.132-7.961-11.949-7.961-19.201
		c0-7.243,2.821-14.071,7.961-19.191c10.588-10.596,27.836-10.604,38.437-0.015c2.14,2.14,3.879,4.582,5.2,7.256l-3.789,1.852
		c-1.111-2.259-2.592-4.315-4.39-6.125c-8.961-8.944-23.518-8.944-32.477,0.003c-4.343,4.333-6.72,10.091-6.72,16.219
		c0,6.134,2.376,11.895,6.72,16.22c4.339,4.345,10.101,6.718,16.236,6.718c6.131,0,11.897-2.373,16.231-6.718l2.989,2.98
		C57.374,100.854,50.544,103.676,43.283,103.676"/>
	<path fill-rule="evenodd" clip-rule="evenodd" fill="#DA7676" d="M43.283,61.698c-3.958,0-7.69,1.539-10.5,4.335
		c-2.799,2.801-4.348,6.533-4.348,10.488c0,3.963,1.548,7.69,4.348,10.493c2.809,2.797,6.542,4.336,10.5,4.336
		c3.96,0,7.691-1.539,10.499-4.336c5.793-5.792,5.793-15.2,0-20.981C50.974,63.236,47.254,61.698,43.283,61.698 M43.283,95.569
		c-5.089,0-9.878-1.979-13.477-5.577c-3.602-3.602-5.592-8.38-5.592-13.471c0-5.086,1.99-9.867,5.592-13.467
		c3.598-3.599,8.388-5.579,13.477-5.579c5.094,0,9.877,1.98,13.48,5.579c7.44,7.421,7.44,19.51,0,26.938
		C53.16,93.59,48.377,95.569,43.283,95.569"/>
	<polygon fill="#FA953A" points="172.057,7.98 172.057,12.371 137.602,12.371 137.602,44.597 172.057,44.597 172.057,48.988 
		137.602,48.988 137.602,81.213 172.057,81.213 172.057,85.606 133.215,85.606 133.215,7.98 	"/>
	<polygon fill="#FA953A" points="223.215,7.98 223.215,12.371 188.758,12.371 188.758,44.597 223.215,44.597 223.215,48.988 
		188.758,48.988 188.758,81.213 223.215,81.213 223.215,85.606 184.357,85.606 184.357,7.98 	"/>
	<path fill="#FA953A" d="M299.634,75.945c-7.353,7.061-16.163,10.588-26.422,10.588c-11.031,0-20.409-3.87-28.161-11.614
		c-7.746-7.735-11.615-17.113-11.615-28.131c0-10.94,3.869-20.3,11.615-28.078c7.752-7.781,17.13-11.656,28.161-11.656
		c10.259,0,19.174,3.448,26.753,10.365l-3.348,2.969c-6.673-5.898-14.469-8.838-23.405-8.838c-9.756,0-18.066,3.441-24.972,10.32
		c-6.91,6.877-10.357,15.188-10.357,24.918c0,9.778,3.447,18.091,10.357,24.978c6.905,6.889,15.216,10.328,24.972,10.328
		c8.345,0,15.718-2.573,22.087-7.693V50.746h4.335V75.945z"/>
	<path fill="#FA953A" d="M116.095,47.746c-0.026-0.177-0.091-0.371-0.18-0.57c-0.655-1.49-1.507-2.9-2.518-4.248
		c-0.909-1.291-1.909-2.51-3.039-3.653l-0.141,0.143c-4.087-3.823-9.026-6.687-14.838-8.567c-3.889-1.792-6.929-3.761-9.131-5.923
		c-2.338-2.379-3.509-5.237-3.509-8.568c0-3.37,1.181-6.22,3.54-8.559c2.362-2.351,5.211-3.521,8.552-3.521
		c3.326,0,6.167,1.171,8.507,3.521c1.321,1.311,2.272,2.761,2.859,4.331l3.958-1.538c-0.699-2.12-1.929-4.04-3.678-5.764
		C103.207,1.61,99.327,0,94.831,0c-4.582,0-8.482,1.61-11.681,4.829c-3.207,3.223-4.812,7.071-4.812,11.53
		c0,4.579,1.605,8.459,4.812,11.667c3.198,3.2,7.571,5.724,13.098,7.551c4.658,1.897,8.59,4.459,11.821,7.678
		c1.069,1.071,1.966,2.211,2.727,3.41c0.171,0.291,0.362,0.559,0.513,0.857l0.196,0.376c1.692,3.225,2.593,6.835,2.593,10.584
		c0,6.131-2.393,11.889-6.723,16.219c-8.956,8.955-23.522,8.955-32.473,0c-1.801-1.797-3.282-3.858-4.388-6.12l-3.792,1.846
		c1.309,2.681,3.06,5.125,5.189,7.257c5.301,5.296,12.258,7.934,19.216,7.934c6.972,0,13.929-2.638,19.23-7.934
		c5.126-5.134,7.958-11.952,7.958-19.203C118.315,54.723,117.548,51.096,116.095,47.746"/>
</g>
<g>
	<g>
		<g>
			<path fill="#8994A1" d="M178.707,130.137v-25.831c0-0.445,0.223-0.668,0.668-0.668h5.567c2.449,0,4.329,0.434,5.642,1.299
				c1.311,0.867,1.967,2.5,1.967,4.899c0,1.559-0.285,2.883-0.854,3.971c-0.57,1.089-1.337,1.844-2.302,2.265
				c2.549,1.063,3.823,3.241,3.823,6.531v0.631c0,2.623-0.662,4.534-1.985,5.734c-1.324,1.2-3.087,1.8-5.289,1.8h-6.569
				C178.929,130.768,178.707,130.558,178.707,130.137z M180.042,115.402h5.159c2.128,0,3.661-0.408,4.602-1.225
				s1.411-2.264,1.411-4.342c0-1.905-0.526-3.191-1.578-3.859c-1.052-0.669-2.592-1.003-4.62-1.003h-4.974V115.402z
				 M180.042,129.432h5.901c3.958,0,5.938-2.065,5.938-6.198v-0.631c0-2.078-0.508-3.575-1.522-4.49s-2.486-1.373-4.416-1.373
				h-5.901V129.432z"/>
			<path fill="#8994A1" d="M197.708,130.1v-16.219c0-0.42,0.21-0.631,0.631-0.631c0.445,0,0.668,0.211,0.668,0.631v1.968
				c1.113-1.881,2.833-2.821,5.159-2.821h1.373c0.173,0,0.321,0.068,0.445,0.204c0.124,0.137,0.186,0.291,0.186,0.464
				c0,0.174-0.062,0.322-0.186,0.445c-0.124,0.124-0.272,0.186-0.445,0.186h-1.373c-1.386,0-2.592,0.495-3.618,1.484
				c-1.027,0.99-1.541,2.289-1.541,3.897V130.1c0,0.173-0.068,0.328-0.204,0.464c-0.136,0.137-0.291,0.204-0.464,0.204
				s-0.321-0.067-0.445-0.204C197.77,130.428,197.708,130.272,197.708,130.1z"/>
			<path fill="#8994A1" d="M206.838,126.092c0-1.856,0.736-3.137,2.208-3.842s3.619-1.058,6.439-1.058h2.078v-1.039
				c0-1.583-0.408-2.95-1.225-4.101c-0.816-1.151-2.041-1.727-3.674-1.727c-0.668,0-1.293,0.081-1.874,0.241
				c-0.582,0.161-1.034,0.328-1.355,0.501c-0.321,0.174-0.532,0.26-0.631,0.26c-0.198,0-0.358-0.086-0.482-0.26
				c-0.124-0.173-0.186-0.334-0.186-0.482c0-0.371,0.488-0.724,1.466-1.058s2.023-0.501,3.137-0.501c2.127,0,3.68,0.675,4.657,2.022
				c0.978,1.35,1.466,3.05,1.466,5.104v9.946c0,0.445-0.21,0.668-0.631,0.668c-0.198,0-0.358-0.062-0.482-0.186
				c-0.124-0.123-0.186-0.284-0.186-0.482v-1.93c-1.633,1.88-3.488,2.82-5.566,2.82c-1.535,0-2.778-0.414-3.73-1.243
				S206.838,127.7,206.838,126.092z M208.137,126.092c0,1.188,0.353,2.084,1.058,2.69s1.627,0.909,2.766,0.909
				c1.336,0,2.604-0.47,3.804-1.41s1.8-1.831,1.8-2.673v-3.117h-2.041c-1.113,0-2.048,0.037-2.802,0.111
				c-0.755,0.074-1.516,0.229-2.283,0.464c-0.767,0.235-1.342,0.606-1.726,1.113C208.329,124.688,208.137,125.325,208.137,126.092z"
				/>
			<path fill="#8994A1" d="M222.648,128.578c0-0.173,0.056-0.321,0.167-0.445s0.229-0.186,0.353-0.186s0.31,0.099,0.557,0.297
				l0.779,0.594c0.297,0.198,0.761,0.39,1.392,0.575c0.632,0.186,1.343,0.278,2.135,0.278c1.459,0,2.548-0.284,3.266-0.854
				s1.076-1.312,1.076-2.227c0-1.063-0.321-1.899-0.965-2.506c-0.644-0.605-1.423-1.045-2.338-1.317l-2.746-0.854
				c-0.916-0.297-1.695-0.772-2.339-1.429c-0.644-0.655-0.965-1.54-0.965-2.653c0-1.262,0.47-2.381,1.41-3.359
				c0.94-0.977,2.302-1.466,4.083-1.466c1.088,0,2.115,0.174,3.08,0.52c0.965,0.347,1.447,0.693,1.447,1.039
				c0,0.148-0.068,0.31-0.204,0.482c-0.136,0.174-0.278,0.26-0.427,0.26c-0.024,0-0.451-0.167-1.28-0.501s-1.688-0.501-2.579-0.501
				c-1.436,0-2.5,0.363-3.192,1.089s-1.039,1.519-1.039,2.379c0,0.886,0.324,1.587,0.971,2.103c0.647,0.518,1.426,0.91,2.336,1.18
				c0.909,0.271,1.824,0.542,2.746,0.815s1.702,0.797,2.342,1.571c0.639,0.775,0.958,1.8,0.958,3.074
				c0,1.386-0.495,2.474-1.484,3.266c-0.99,0.792-2.363,1.188-4.119,1.188c-1.535,0-2.821-0.271-3.86-0.816
				C223.167,129.63,222.648,129.098,222.648,128.578z"/>
			<path fill="#8994A1" d="M237.4,107.108c-0.235-0.235-0.353-0.514-0.353-0.835s0.117-0.595,0.353-0.817s0.514-0.334,0.835-0.334
				s0.594,0.111,0.816,0.334s0.334,0.496,0.334,0.817s-0.111,0.6-0.334,0.835s-0.495,0.353-0.816,0.353
				S237.635,107.344,237.4,107.108z M237.604,130.1v-16.219c0-0.173,0.062-0.321,0.186-0.445c0.124-0.123,0.272-0.186,0.445-0.186
				c0.445,0,0.668,0.211,0.668,0.631V130.1c0,0.173-0.068,0.328-0.204,0.464c-0.136,0.137-0.291,0.204-0.464,0.204
				s-0.321-0.067-0.445-0.204C237.666,130.428,237.604,130.272,237.604,130.1z"/>
			<path fill="#8994A1" d="M244.284,130.1v-27.204c0-0.42,0.21-0.631,0.631-0.631c0.445,0,0.668,0.211,0.668,0.631V130.1
				c0,0.173-0.068,0.328-0.204,0.464c-0.136,0.137-0.291,0.204-0.464,0.204s-0.321-0.067-0.445-0.204
				C244.345,130.428,244.284,130.272,244.284,130.1z"/>
		</g>
	</g>
	<g>
		<path fill="#231F20" d="M259.602,130.765v-26.963h40.363v26.881v0.082H259.602z M299.883,130.683v-0.085V130.683z
			 M259.769,130.598H299.8l-0.003-26.631h-40.028V130.598z"/>
		<rect x="259.687" y="103.884" fill="#00923E" width="40.196" height="26.799"/>
		<polygon fill="#F8C100" points="263.713,117.284 279.785,127.545 295.856,117.284 279.785,107.021 		"/>
		<path fill="#28166F" d="M279.785,110.399c3.802,0,6.881,3.083,6.881,6.885c0,3.804-3.079,6.883-6.881,6.883
			c-3.804,0-6.884-3.079-6.884-6.883C272.901,113.482,275.981,110.399,279.785,110.399z"/>
		<path fill="#FFFFFF" d="M286.631,117.979c-3.008-2.405-6.858-3.786-11.007-3.638c-0.734,0.021-1.458,0.102-2.162,0.216
			c-0.148,0.343-0.268,0.701-0.358,1.065c0.829-0.165,1.678-0.271,2.556-0.302c4.094-0.145,7.884,1.294,10.772,3.759
			C286.526,118.723,286.594,118.352,286.631,117.979z"/>
		<path fill="#00923E" d="M273.659,115.019l0.006-0.177l0.046-0.1l0.08-0.074l0.143-0.045l0.245,0.057l0.128,0.241l-0.054,0.265
			l-0.22,0.127l-0.248-0.059L273.659,115.019z M273.796,114.993l0.076,0.165l0.143,0.037l0.122-0.074l0.027-0.183l-0.075-0.165
			l-0.143-0.034l-0.125,0.074L273.796,114.993z"/>
		<path fill="#00923E" d="M274.608,115.227l-0.06-0.673l0.282-0.025l0.162,0.006l0.083,0.057l0.037,0.103l-0.031,0.128l-0.129,0.074
			l0.076,0.049l0.086,0.105l0.095,0.122l-0.159,0.014l-0.114-0.136l-0.077-0.094l-0.042-0.023l-0.072-0.002l-0.028,0.002l0.028,0.28
			L274.608,115.227z M274.708,114.824l0.1-0.008l0.12-0.018l0.037-0.031l0.012-0.051l-0.023-0.055l-0.054-0.02l-0.104,0.006
			l-0.102,0.008L274.708,114.824z"/>
		<path fill="#00923E" d="M275.422,114.485l0.249-0.006l0.128,0.006l0.102,0.06l0.068,0.109l0.026,0.159l-0.017,0.143l-0.068,0.119
			l-0.095,0.058l-0.119,0.02l-0.257,0.006L275.422,114.485z M275.562,114.597l0.012,0.444l0.1-0.003l0.083-0.008l0.055-0.031
			l0.033-0.066l0.012-0.122l-0.018-0.119l-0.042-0.066l-0.063-0.028l-0.115-0.003L275.562,114.597z"/>
		<polygon fill="#00923E" points="276.269,115.138 276.275,114.466 276.777,114.474 276.773,114.588 276.412,114.582 
			276.409,114.73 276.746,114.736 276.746,114.851 276.406,114.845 276.403,115.03 276.779,115.032 276.777,115.146 		"/>
		<polygon fill="#00923E" points="277.049,115.158 277.096,114.485 277.298,114.5 277.388,114.964 277.54,114.517 277.745,114.528 
			277.696,115.201 277.571,115.195 277.608,114.666 277.437,115.184 277.309,115.176 277.212,114.637 277.172,115.164 		"/>
		<polygon fill="#00923E" points="278.392,115.283 278.494,114.617 278.987,114.691 278.97,114.805 278.611,114.75 278.589,114.896 
			278.924,114.946 278.905,115.062 278.572,115.01 278.542,115.191 278.918,115.246 278.899,115.357 		"/>
		<path fill="#00923E" d="M279.563,115.485l0.151-0.655l0.213,0.048l0.153,0.047l0.08,0.085l0.009,0.137l-0.046,0.1l-0.07,0.051
			l-0.078,0.016l-0.139-0.023l-0.085-0.02l-0.059,0.247L279.563,115.485z M279.822,114.974l-0.045,0.185l0.07,0.018l0.111,0.014
			l0.048-0.023l0.027-0.048l-0.01-0.063l-0.049-0.043l-0.091-0.025L279.822,114.974z"/>
		<path fill="#00923E" d="M280.326,115.671l0.186-0.65l0.273,0.08l0.146,0.06l0.059,0.086v0.108l-0.08,0.107l-0.142,0.023
			l0.054,0.074l0.04,0.128l0.048,0.152l-0.156-0.047l-0.057-0.171l-0.04-0.113l-0.031-0.041l-0.065-0.021l-0.026-0.01l-0.076,0.271
			L280.326,115.671z M280.565,115.334l0.095,0.029l0.119,0.025l0.046-0.018l0.028-0.045l-0.002-0.057l-0.043-0.041l-0.097-0.031
			l-0.098-0.027L280.565,115.334z"/>
		<path fill="#00923E" d="M281.202,115.579l0.085-0.153l0.088-0.065l0.104-0.028l0.145,0.022l0.194,0.166v0.272l-0.166,0.211
			l-0.253,0.009l-0.196-0.165V115.579z M281.334,115.622l-0.008,0.183l0.11,0.1l0.143-0.014l0.105-0.148l0.012-0.179l-0.111-0.102
			l-0.143,0.012L281.334,115.622z"/>
		<polygon fill="#00923E" points="282.334,116.093 282.381,115.987 282.652,116.099 282.551,116.346 282.407,116.365 
			282.244,116.332 282.089,116.224 282.031,116.062 282.062,115.879 282.175,115.723 282.34,115.656 282.5,115.688 282.662,115.811 
			282.689,115.979 282.557,115.953 282.538,115.855 282.458,115.797 282.303,115.793 282.193,115.93 282.175,116.112 
			282.281,116.224 282.366,116.24 282.45,116.232 282.483,116.152 		"/>
		<path fill="#00923E" d="M282.771,116.548l0.29-0.606l0.257,0.122l0.134,0.084l0.045,0.09l-0.021,0.112l-0.092,0.094l-0.147-0.004
			l0.039,0.083l0.025,0.131l0.018,0.154l-0.148-0.07l-0.022-0.175l-0.022-0.119l-0.026-0.043l-0.06-0.037l-0.022-0.009l-0.123,0.251
			L282.771,116.548z M283.061,116.255l0.092,0.043l0.11,0.046l0.049-0.012l0.035-0.037l0.005-0.058l-0.034-0.048l-0.086-0.042
			l-0.1-0.047L283.061,116.255z"/>
		<polygon fill="#00923E" points="283.514,116.91 283.837,116.317 284.272,116.557 284.218,116.657 283.9,116.482 283.828,116.616 
			284.127,116.776 284.071,116.876 283.777,116.714 283.691,116.876 284.019,117.055 283.964,117.152 		"/>
		<polygon fill="#00923E" points="284.281,117.081 284.398,117.138 284.388,117.249 284.458,117.326 284.554,117.353 
			284.62,117.315 284.628,117.272 284.6,117.224 284.523,117.141 284.425,117.004 284.447,116.856 284.521,116.79 284.625,116.776 
			284.75,116.825 284.885,116.971 284.868,117.133 284.745,117.066 284.754,116.984 284.692,116.918 284.6,116.893 284.56,116.918 
			284.554,116.961 284.639,117.064 284.739,117.181 284.766,117.278 284.735,117.386 284.651,117.463 284.535,117.477 
			284.398,117.423 284.261,117.269 		"/>
		<polygon fill="#00923E" points="284.953,117.497 285.07,117.561 285.056,117.668 285.122,117.751 285.218,117.782 
			285.282,117.748 285.292,117.708 285.27,117.654 285.196,117.57 285.105,117.429 285.13,117.28 285.207,117.218 285.319,117.21 
			285.438,117.263 285.562,117.414 285.537,117.576 285.42,117.506 285.432,117.423 285.375,117.354 285.284,117.326 
			285.241,117.347 285.235,117.392 285.315,117.5 285.409,117.619 285.432,117.72 285.395,117.821 285.307,117.896 285.19,117.907 
			285.056,117.845 284.925,117.686 		"/>
		<path fill="#00923E" d="M285.679,117.858l0.129-0.119l0.104-0.037l0.106,0.006l0.133,0.065l0.135,0.217l-0.086,0.262l-0.225,0.147
			l-0.242-0.07l-0.137-0.217L285.679,117.858z M285.793,117.938l-0.06,0.174l0.068,0.122l0.143,0.037l0.148-0.107l0.063-0.169
			l-0.074-0.127l-0.142-0.037L285.793,117.938z"/>
		<polygon fill="#FFFFFF" points="281.97,114.67 282.033,114.864 282.238,114.864 282.072,114.987 282.136,115.181 281.97,115.062 
			281.805,115.181 281.871,114.987 281.706,114.864 281.908,114.864 		"/>
		<polygon fill="#FFFFFF" points="279.814,120.231 279.876,120.426 280.081,120.426 279.914,120.545 279.975,120.742 
			279.814,120.619 279.648,120.742 279.71,120.545 279.545,120.426 279.748,120.426 		"/>
		<polygon fill="#FFFFFF" points="284.698,119.548 284.762,119.745 284.97,119.745 284.802,119.867 284.868,120.067 
			284.698,119.945 284.532,120.067 284.594,119.867 284.425,119.745 284.634,119.745 		"/>
		<polygon fill="#FFFFFF" points="285.664,119.714 285.703,119.839 285.836,119.839 285.728,119.916 285.768,120.044 
			285.664,119.967 285.554,120.044 285.595,119.916 285.489,119.839 285.623,119.839 		"/>
		<polygon fill="#FFFFFF" points="284.978,120.204 285.033,120.375 285.215,120.375 285.068,120.482 285.125,120.654 
			284.978,120.545 284.831,120.654 284.888,120.482 284.739,120.375 284.921,120.375 		"/>
		<polygon fill="#FFFFFF" points="284.546,120.773 284.6,120.941 284.78,120.941 284.637,121.047 284.692,121.215 284.546,121.109 
			284.404,121.215 284.46,121.047 284.315,120.941 284.492,120.941 		"/>
		<polygon fill="#FFFFFF" points="283.996,121.184 284.039,121.315 284.172,121.315 284.065,121.397 284.108,121.525 
			283.996,121.442 283.884,121.525 283.927,121.397 283.816,121.315 283.953,121.315 		"/>
		<polygon fill="#FFFFFF" points="283.269,121.047 283.316,121.172 283.446,121.172 283.341,121.252 283.38,121.38 283.269,121.301 
			283.164,121.38 283.205,121.252 283.096,121.172 283.232,121.172 		"/>
		<polygon fill="#FFFFFF" points="282.492,121.283 282.538,121.421 282.683,121.421 282.566,121.506 282.609,121.645 
			282.492,121.56 282.372,121.645 282.418,121.506 282.301,121.421 282.446,121.421 		"/>
		<polygon fill="#FFFFFF" points="283.285,122.417 283.326,122.548 283.463,122.548 283.352,122.632 283.395,122.762 
			283.285,122.68 283.172,122.762 283.214,122.632 283.104,122.548 283.242,122.548 		"/>
		<polygon fill="#FFFFFF" points="281.879,121.819 281.936,121.995 282.125,121.995 281.973,122.106 282.031,122.283 
			281.879,122.172 281.728,122.283 281.788,122.106 281.637,121.995 281.823,121.995 		"/>
		<polygon fill="#FFFFFF" points="281.337,121.102 281.383,121.235 281.529,121.235 281.412,121.321 281.457,121.454 
			281.337,121.372 281.227,121.454 281.27,121.321 281.155,121.235 281.295,121.235 		"/>
		<polygon fill="#FFFFFF" points="283.306,121.666 283.364,121.836 283.543,121.836 283.395,121.944 283.452,122.115 
			283.306,122.007 283.162,122.115 283.214,121.944 283.07,121.836 283.251,121.836 		"/>
		<polygon fill="#FFFFFF" points="279.804,122.771 279.826,122.834 279.89,122.834 279.836,122.871 279.856,122.934 
			279.804,122.896 279.751,122.934 279.771,122.871 279.722,122.834 279.785,122.834 		"/>
		<polygon fill="#FFFFFF" points="281.631,116.765 281.676,116.907 281.823,116.907 281.706,116.992 281.75,117.135 
			281.631,117.047 281.511,117.135 281.557,116.992 281.437,116.907 281.585,116.907 		"/>
		<polygon fill="#FFFFFF" points="279.808,118.283 279.859,118.431 280.012,118.431 279.887,118.522 279.936,118.674 
			279.808,118.58 279.683,118.674 279.734,118.522 279.605,118.431 279.763,118.431 		"/>
		<polygon fill="#FFFFFF" points="280.618,118.907 280.668,119.069 280.836,119.069 280.703,119.167 280.756,119.324 
			280.618,119.227 280.483,119.324 280.534,119.167 280.398,119.069 280.565,119.069 		"/>
		<polygon fill="#FFFFFF" points="279.109,118.933 279.15,119.056 279.284,119.056 279.175,119.132 279.215,119.261 
			279.109,119.181 279.001,119.261 279.044,119.132 278.936,119.056 279.067,119.056 		"/>
		<polygon fill="#FFFFFF" points="279.444,119.497 279.471,119.583 279.56,119.583 279.486,119.634 279.514,119.716 
			279.444,119.665 279.372,119.716 279.401,119.634 279.329,119.583 279.415,119.583 		"/>
		<polygon fill="#FFFFFF" points="274.095,115.871 274.159,116.067 274.363,116.067 274.202,116.184 274.263,116.381 
			274.095,116.258 273.933,116.381 273.996,116.184 273.83,116.067 274.033,116.067 		"/>
		<polygon fill="#FFFFFF" points="277.106,117.435 277.159,117.594 277.326,117.594 277.192,117.691 277.247,117.853 
			277.106,117.753 276.97,117.853 277.024,117.691 276.888,117.594 277.059,117.594 		"/>
		<polygon fill="#FFFFFF" points="274.721,118.797 274.782,118.989 274.988,118.989 274.825,119.11 274.887,119.307 
			274.721,119.184 274.554,119.307 274.617,119.11 274.451,118.989 274.657,118.989 		"/>
		<polygon fill="#FFFFFF" points="275.397,118.503 275.428,118.603 275.531,118.603 275.446,118.662 275.477,118.76 
			275.397,118.699 275.315,118.76 275.346,118.662 275.263,118.603 275.366,118.603 		"/>
		<polygon fill="#FFFFFF" points="276.181,119.528 276.232,119.694 276.409,119.694 276.269,119.796 276.32,119.961 
			276.181,119.855 276.039,119.961 276.092,119.796 275.954,119.694 276.126,119.694 		"/>
		<polygon fill="#FFFFFF" points="276.999,120.808 277.064,121.002 277.266,121.002 277.102,121.121 277.167,121.315 
			276.999,121.195 276.833,121.315 276.899,121.121 276.734,121.002 276.936,121.002 		"/>
		<polygon fill="#FFFFFF" points="275.954,120.222 276.01,120.386 276.181,120.386 276.044,120.488 276.095,120.654 
			275.954,120.551 275.813,120.654 275.868,120.488 275.725,120.386 275.901,120.386 		"/>
		<polygon fill="#FFFFFF" points="273.859,119.503 273.898,119.632 274.033,119.632 273.925,119.711 273.967,119.839 
			273.859,119.759 273.748,119.839 273.791,119.711 273.679,119.632 273.813,119.632 		"/>
	</g>
</g>
</svg>
